<?xml version="1.0" encoding="UTF-8" standalone="no"?> <!-- Created with Vectornator for iOS (http://vectornator.io/) --><!DOCTYPE svg PUBLIC "-//W3C//DTD SVG 1.1//EN" "http://www.w3.org/Graphics/SVG/1.1/DTD/svg11.dtd">
<svg style="fill-rule:evenodd;clip-rule:evenodd;stroke-linecap:round;stroke-linejoin:round;" xmlns:vectornator="http://vectornator.io" xmlns:xlink="http://www.w3.org/1999/xlink" xmlns="http://www.w3.org/2000/svg" xml:space="preserve" version="1.1" viewBox="0 0 1024 1024">
<metadata>
<vectornator:setting key="DisplayWhiteBackground" value="0"/>
<vectornator:setting key="RulersVisible" value="1"/>
<vectornator:setting key="GridSpacing" value="36"/>
<vectornator:setting key="Units" value="Pixels"/>
<vectornator:setting key="DynamicGuides" value="0"/>
<vectornator:setting key="SnapToPoints" value="0"/>
<vectornator:setting key="CMYKEnabledKey" value="0"/>
<vectornator:setting key="SnapToGrid" value="0"/>
<vectornator:setting key="ShowGrid" value="1"/>
<vectornator:setting key="SnapToEdges" value="0"/>
</metadata>
<defs/>
<g>
<path stroke="#000000" stroke-width="1" d="M20.0249+262.465" fill="#ffffff" stroke-linecap="butt" opacity="1" stroke-linejoin="round"/>
<g opacity="1">
<path d="M134.47+237.962L140.093+237.962L148.419+263.583L156.686+237.962L162.25+237.962L162.25+268.265L158.521+268.265L158.521+250.38C158.521+249.761+158.534+248.737+158.56+247.307C158.587+245.876+158.6+244.343+158.6+242.706L150.333+268.265L146.446+268.265L138.12+242.706L138.12+243.635C138.12+244.377+138.137+245.508+138.17+247.028C138.203+248.548+138.219+249.665+138.219+250.38L138.219+268.265L134.47+268.265L134.47+237.962Z" opacity="1" fill="#ffffff"/>
</g>
<path d="M1009.93+913.177C994.015+935.834+970.831+947.163+940.382+947.163C919.62+947.163+901.454+943.953+885.883+937.533C870.312+931.114+857.509+923.561+847.474+914.876C837.44+906.19+829.827+897.316+824.637+888.253C819.447+879.19+816.852+871.638+816.852+865.596C816.852+860.309+818.236+854.644+821.004+848.602C823.772+842.56+826.886+836.33+830.346+829.91C833.807+823.49+836.921+817.26+839.689+811.218C842.457+805.176+843.841+799.889+843.841+795.357L813.737+421.508L623.771+839.539C621.695+845.581+620.657+852.379+620.657+859.931C620.657+865.218+621.522+873.526+623.252+884.855C624.982+896.183+625.847+904.869+625.847+910.911C625.847+920.729+623.252+929.037+618.062+935.834C612.871+942.631+606.47+948.296+598.857+952.827C591.245+957.359+582.421+960.569+572.387+962.457C562.352+964.345+552.836+965.289+543.84+965.289C529.999+965.289+516.677+963.212+503.874+959.058C491.071+954.904+479.826+949.051+470.137+941.498C460.448+933.946+452.836+925.072+447.3+914.876C441.763+904.68+438.995+893.162+438.995+880.323C438.995+875.792+439.687+870.127+441.071+863.33C442.455+856.533+443.147+851.623+443.147+848.602C443.147+846.337+442.455+842.183+441.071+836.141L285.361+433.969L295.742+813.483C295.742+818.015+296.434+824.057+297.818+831.609C299.202+839.162+300.759+846.714+302.489+854.267C304.219+861.819+305.776+868.994+307.16+875.792C308.545+882.589+309.237+887.876+309.237+891.652C309.237+897.694+307.852+904.302+305.084+911.477C302.316+918.652+298.337+925.261+293.147+931.303C287.956+937.345+281.382+942.443+273.423+946.596C265.465+950.75+255.949+952.827+244.876+952.827C234.496+952.827+222.385+950.373+208.544+945.464C194.703+940.554+181.727+933.946+169.617+925.638C157.506+917.33+147.125+907.512+138.475+896.183C129.824+884.855+125.499+872.771+125.499+859.931C125.499+856.91+126.71+853.323+129.132+849.169C131.554+845.015+134.322+840.861+137.436+836.707C140.551+832.553+143.492+828.588+146.26+824.812C149.028+821.036+150.412+817.26+150.412+813.483L137.955+232.317C137.955+227.786+136.917+222.31+134.841+215.89C132.765+209.471+130.343+202.862+127.575+196.065C124.807+189.268+122.384+183.037+120.308+177.373C118.232+171.708+117.194+166.988+117.194+163.212C117.194+157.925+118.578+151.883+121.346+145.086C124.115+138.288+128.959+131.869+135.879+125.827C142.8+119.785+151.45+114.875+161.831+111.099C172.212+107.323+185.361+105.435+201.278+105.435C217.887+105.435+234.15+107.323+250.067+111.099C265.984+114.875+279.998+119.973+292.108+126.393C304.219+132.813+314.081+140.365+321.693+149.051C329.306+157.736+333.112+166.988+333.112+176.806C333.112+181.338+332.766+184.736+332.074+187.002L332.074+196.065C332.074+202.107+333.112+207.394+335.188+211.925L540.726+701.328L771.177+181.338C773.945+176.051+775.329+168.876+775.329+159.813C775.329+155.281+774.983+151.128+774.291+147.351L774.291+136.023C774.291+122.428+780+110.155+791.419+99.204C802.838+88.2528+819.966+82.7773+842.803+82.7773C857.336+82.7773+872.042+85.2318+886.921+90.141C901.8+95.0501+915.468+101.47+927.925+109.4C940.382+117.33+950.589+126.582+958.548+137.155C966.506+147.729+970.485+158.302+970.485+168.876C969.793+174.918+967.89+180.016+964.776+184.17C961.662+188.324+958.375+192.289+954.914+196.065C951.454+199.841+948.34+203.24+945.572+206.261C942.804+209.282+941.42+212.303+941.42+215.324L985.018+818.015C985.018+820.281+986.749+824.812+990.209+831.609C993.669+838.407+997.302+845.581+1001.11+853.134C1004.91+860.687+1008.55+868.239+1012.01+875.792C1015.47+883.344+1017.2+889.008+1017.2+892.785C1017.2+901.092+1014.78+907.89+1009.93+913.177Z"  fill="#00000040"/>
<path d="M901.565+880.412C885.648+903.069+862.464+914.398+832.014+914.398C811.253+914.398+793.087+911.188+777.516+904.769C761.945+898.349+749.142+890.796+739.107+882.111C729.073+873.426+721.46+864.551+716.27+855.488C711.079+846.425+708.484+838.873+708.484+832.831C708.484+827.544+709.868+821.88+712.637+815.838C715.405+809.796+718.519+803.565+721.979+797.145C725.439+790.726+728.554+784.495+731.322+778.453C734.09+772.411+735.474+767.124+735.474+762.592L705.37+388.743L515.404+806.775C513.328+812.817+512.29+819.614+512.29+827.166C512.29+832.453+513.155+840.761+514.885+852.09C516.615+863.419+517.48+872.104+517.48+878.146C517.48+887.964+514.885+896.272+509.694+903.069C504.504+909.867+498.103+915.531+490.49+920.062C482.878+924.594+474.054+927.804+464.019+929.692C453.985+931.58+444.469+932.524+435.473+932.524C421.632+932.524+408.31+930.447+395.507+926.293C382.704+922.139+371.458+916.286+361.77+908.734C352.081+901.181+344.469+892.307+338.932+882.111C333.396+871.915+330.628+860.398+330.628+847.558C330.628+843.027+331.32+837.362+332.704+830.565C334.088+823.768+334.78+818.859+334.78+815.838C334.78+813.572+334.088+809.418+332.704+803.376L176.994+401.205L187.375+780.719C187.375+785.25+188.067+791.292+189.451+798.845C190.835+806.397+192.392+813.95+194.122+821.502C195.852+829.055+197.409+836.23+198.793+843.027C200.177+849.824+200.869+855.111+200.869+858.887C200.869+864.929+199.485+871.538+196.717+878.712C193.949+885.887+189.97+892.496+184.779+898.538C179.589+904.58+173.015+909.678+165.056+913.832C157.098+917.986+147.582+920.062+136.509+920.062C126.129+920.062+114.018+917.608+100.177+912.699C86.336+907.79+73.3601+901.181+61.2493+892.873C49.1385+884.566+38.7579+874.747+30.1073+863.419C21.4567+852.09+17.1315+840.006+17.1315+827.166C17.1315+824.145+18.3425+820.558+20.7647+816.404C23.1869+812.25+25.955+808.096+29.0692+803.943C32.1834+799.789+35.1246+795.824+37.8928+792.047C40.661+788.271+42.0451+784.495+42.0451+780.719L29.5883+199.552C29.5883+195.021+28.5502+189.545+26.4741+183.126C24.3979+176.706+21.9758+170.098+19.2076+163.3C16.4394+156.503+14.0173+150.272+11.9411+144.608C9.86499+138.943+8.82693+134.223+8.82693+130.447C8.82693+125.16+10.211+119.118+12.9792+112.321C15.7474+105.523+20.5917+99.1039+27.5121+93.0618C34.4326+87.0198+43.0831+82.1107+53.4638+78.3344C63.8445+74.5582+76.9933+72.67+92.9104+72.67C109.519+72.67+125.783+74.5582+141.7+78.3344C157.617+82.1107+171.63+87.2086+183.741+93.6283C195.852+100.048+205.714+107.6+213.326+116.286C220.939+124.971+224.745+134.223+224.745+144.041C224.745+148.573+224.399+151.971+223.707+154.237L223.707+163.3C223.707+169.342+224.745+174.629+226.821+179.161L432.358+668.564L662.809+148.573C665.578+143.286+666.962+136.111+666.962+127.048C666.962+122.517+666.616+118.363+665.924+114.587L665.924+103.258C665.924+89.6632+671.633+77.3904+683.052+66.4392C694.47+55.4881+711.599+50.0125+734.436+50.0125C748.969+50.0125+763.675+52.4671+778.554+57.3762C793.433+62.2853+807.101+68.705+819.558+76.6351C832.014+84.5653+842.222+93.8171+850.18+104.391C858.139+114.964+862.118+125.538+862.118+136.111C861.426+142.153+859.523+147.251+856.409+151.405C853.295+155.559+850.007+159.524+846.547+163.3C843.087+167.077+839.973+170.475+837.205+173.496C834.436+176.517+833.052+179.538+833.052+182.559L876.651+785.25C876.651+787.516+878.381+792.047+881.842+798.845C885.302+805.642+888.935+812.817+892.741+820.369C896.548+827.922+900.181+835.474+903.641+843.027C907.101+850.579+908.831+856.244+908.831+860.02C908.831+868.328+906.409+875.125+901.565+880.412Z" />
</g>
</svg>
